<?xml version="1.0" encoding="UTF-8" standalone="no"?>
<svg
   xmlns:dc="http://purl.org/dc/elements/1.1/"
   xmlns:cc="http://creativecommons.org/ns#"
   xmlns:rdf="http://www.w3.org/1999/02/22-rdf-syntax-ns#"
   xmlns:svg="http://www.w3.org/2000/svg"
   xmlns="http://www.w3.org/2000/svg"
   viewBox="0 0 666.66669 666.66669"
   height="666.66669"
   width="666.66669"
   xml:space="preserve"
   id="svg2"
   version="1.1"><metadata
     id="metadata8"><rdf:RDF><cc:Work
         rdf:about=""><dc:format>image/svg+xml</dc:format><dc:type
           rdf:resource="http://purl.org/dc/dcmitype/StillImage" /></cc:Work></rdf:RDF></metadata><defs
     id="defs6"><clipPath
       id="clipPath22"
       clipPathUnits="userSpaceOnUse"><path
         id="path20"
         d="M 0,500 H 500 V 0 H 0 Z" /></clipPath></defs><g
     transform="matrix(1.3333333,0,0,-1.3333333,0,666.66667)"
     id="g10"><path
       id="path12"
       style="fill:#ffffff;fill-opacity:1;fill-rule:nonzero;stroke:none"
       d="M 0,0 H 500 V 500 H 0 Z" /><path
       id="path14"
       style="fill:#47261b;fill-opacity:1;fill-rule:nonzero;stroke:none"
       d="M 0,0 H 500 V 500 H 0 Z" /><g
       id="g16"><g
         clip-path="url(#clipPath22)"
         id="g18"><g
           transform="translate(137.3311,234.4964)"
           id="g24"><path
             id="path26"
             style="fill:#efeee9;fill-opacity:1;fill-rule:nonzero;stroke:none"
             d="m 0,0 c 0.651,1.776 1.339,3.688 2.063,5.729 0.718,2.042 1.421,4.146 2.104,6.313 0.692,2.177 1.359,4.385 2,6.625 0.651,2.234 1.234,4.437 1.75,6.604 L 3.542,39.583 c -0.292,0.985 -0.271,1.844 0.062,2.584 0.344,0.734 0.896,1.354 1.646,1.854 0.76,0.5 1.656,0.864 2.687,1.104 1.042,0.234 2.131,0.354 3.271,0.354 0.985,0 1.865,-0.057 2.646,-0.166 0.776,-0.099 1.459,-0.287 2.042,-0.563 0.594,-0.266 1.088,-0.646 1.479,-1.146 0.385,-0.489 0.698,-1.12 0.937,-1.896 L 31.229,0.104 c 0.693,1.86 1.417,3.865 2.167,6.021 0.75,2.167 1.484,4.385 2.208,6.667 0.719,2.276 1.406,4.588 2.063,6.937 0.666,2.344 1.239,4.646 1.729,6.896 0.5,2.25 0.885,4.401 1.167,6.458 0.291,2.052 0.437,3.938 0.437,5.646 0,1.985 -0.135,3.636 -0.396,4.959 -0.265,1.317 -0.573,2.416 -0.916,3.291 -0.349,0.886 -0.662,1.615 -0.938,2.188 -0.266,0.567 -0.396,1.093 -0.396,1.583 0,0.625 0.156,1.151 0.479,1.583 0.334,0.443 0.756,0.813 1.271,1.105 0.511,0.302 1.068,0.526 1.667,0.666 0.594,0.136 1.167,0.209 1.708,0.209 1.209,0 2.229,-0.183 3.063,-0.542 0.843,-0.365 1.437,-0.979 1.771,-1.854 0.135,-0.448 0.25,-0.917 0.333,-1.417 0.094,-0.5 0.167,-0.99 0.208,-1.458 0.052,-0.459 0.084,-0.891 0.084,-1.292 v -0.958 c 0,-1.266 -0.209,-2.995 -0.625,-5.188 C 47.906,39.422 47.354,36.958 46.646,34.208 45.948,31.458 45.151,28.505 44.25,25.354 43.344,22.198 42.406,19.026 41.438,15.833 40.464,12.635 39.479,9.505 38.479,6.437 37.49,3.38 36.552,0.552 35.667,-2.042 34.792,-4.641 34.01,-6.927 33.333,-8.896 c -0.682,-1.958 -1.203,-3.417 -1.562,-4.375 -0.24,-0.724 -0.557,-1.302 -0.959,-1.729 -0.406,-0.417 -0.869,-0.74 -1.395,-0.958 -0.532,-0.219 -1.099,-0.36 -1.709,-0.417 -0.614,-0.068 -1.25,-0.104 -1.916,-0.104 -1.198,0 -2.183,0.125 -2.959,0.375 -0.765,0.239 -1.375,0.531 -1.833,0.896 -0.448,0.359 -0.771,0.75 -0.979,1.166 -0.209,0.417 -0.37,0.792 -0.479,1.125 L 10.583,16.542 C 9.583,13.26 8.568,10.042 7.542,6.875 6.526,3.708 5.562,0.781 4.646,-1.896 c -0.917,-2.666 -1.74,-5 -2.458,-7 -0.709,-1.989 -1.261,-3.448 -1.646,-4.375 -0.308,-0.724 -0.683,-1.302 -1.125,-1.729 -0.433,-0.417 -0.912,-0.74 -1.438,-0.958 -0.515,-0.219 -1.078,-0.36 -1.687,-0.417 -0.599,-0.068 -1.209,-0.104 -1.834,-0.104 -1.208,0 -2.198,0.125 -2.958,0.375 -0.766,0.239 -1.375,0.531 -1.833,0.896 -0.448,0.359 -0.782,0.75 -1,1.166 -0.224,0.417 -0.396,0.792 -0.521,1.125 l -16.021,53.584 c -0.307,1.01 -0.635,1.875 -0.979,2.583 -0.333,0.708 -0.75,1.281 -1.25,1.729 -0.5,0.459 -1.104,0.792 -1.813,1 -0.698,0.209 -1.557,0.313 -2.583,0.313 -0.833,0 -1.807,-0.203 -2.917,-0.604 -1.114,-0.407 -2.177,-1.011 -3.187,-1.813 -1,-0.792 -1.849,-1.786 -2.542,-2.979 -0.682,-1.182 -1.021,-2.552 -1.021,-4.104 0,-0.959 0.125,-1.724 0.375,-2.292 0.25,-0.573 0.542,-1 0.875,-1.292 0.334,-0.281 0.672,-0.458 1.021,-0.541 0.344,-0.073 0.589,-0.104 0.729,-0.104 0.75,0 1.365,0.125 1.854,0.375 0.485,0.26 0.922,0.531 1.313,0.812 0.385,0.292 0.75,0.563 1.083,0.813 0.344,0.25 0.75,0.375 1.209,0.375 0.359,0 0.739,-0.084 1.145,-0.25 0.402,-0.157 0.777,-0.412 1.125,-0.771 0.344,-0.365 0.636,-0.834 0.875,-1.417 0.235,-0.583 0.355,-1.302 0.355,-2.146 0,-1.198 -0.24,-2.229 -0.709,-3.104 -0.458,-0.875 -1.057,-1.604 -1.791,-2.188 -0.724,-0.583 -1.563,-1.02 -2.521,-1.312 -0.948,-0.281 -1.886,-0.417 -2.813,-0.417 -1.432,0 -2.708,0.25 -3.833,0.75 -1.125,0.511 -2.078,1.209 -2.854,2.084 -0.766,0.875 -1.349,1.885 -1.75,3.041 -0.406,1.151 -0.604,2.386 -0.604,3.709 0,3.125 0.593,5.843 1.791,8.166 1.209,2.334 2.797,4.276 4.771,5.834 1.985,1.567 4.235,2.734 6.75,3.5 2.526,0.76 5.13,1.146 7.813,1.146 3,0 5.458,-0.459 7.375,-1.375 1.916,-0.917 3.463,-2.099 4.645,-3.542 1.193,-1.432 2.131,-3.042 2.813,-4.833 0.693,-1.792 1.312,-3.558 1.854,-5.292 z" /></g><g
           transform="translate(204.0866,261.788)"
           id="g28"><path
             id="path30"
             style="fill:#efeee9;fill-opacity:1;fill-rule:nonzero;stroke:none"
             d="m 0,0 c -1.016,0 -1.958,-0.125 -2.833,-0.375 -0.875,-0.24 -1.636,-0.536 -2.271,-0.896 -0.625,-0.349 -1.12,-0.745 -1.479,-1.187 -0.349,-0.433 -0.521,-0.844 -0.521,-1.23 0,-0.458 0.229,-0.786 0.687,-0.979 0.469,-0.198 0.99,-0.416 1.563,-0.666 0.568,-0.25 1.083,-0.615 1.541,-1.084 0.469,-0.458 0.709,-1.177 0.709,-2.145 0,-0.625 -0.136,-1.204 -0.396,-1.73 -0.25,-0.531 -0.599,-0.994 -1.042,-1.395 -0.432,-0.407 -0.937,-0.719 -1.52,-0.938 -0.584,-0.224 -1.188,-0.333 -1.813,-0.333 -1.682,0 -3.042,0.567 -4.083,1.708 -1.042,1.135 -1.563,2.651 -1.563,4.542 0,1.833 0.479,3.401 1.438,4.708 0.968,1.302 2.229,2.375 3.771,3.208 1.541,0.844 3.281,1.469 5.229,1.875 1.958,0.401 3.916,0.605 5.875,0.605 2.333,0 4.562,-0.261 6.687,-0.771 2.136,-0.5 4.026,-1.308 5.667,-2.417 1.635,-1.115 2.943,-2.531 3.916,-4.25 0.969,-1.708 1.459,-3.781 1.459,-6.208 v -25.438 c 0,-0.265 0.01,-0.562 0.041,-0.896 0.042,-0.333 0.115,-0.64 0.23,-0.916 0.125,-0.266 0.302,-0.49 0.541,-0.667 0.235,-0.167 0.584,-0.25 1.042,-0.25 0.542,0 1.042,0.198 1.5,0.604 0.469,0.401 0.885,0.813 1.25,1.229 l 1.125,-0.937 c -0.458,-0.641 -1,-1.333 -1.625,-2.083 -0.625,-0.75 -1.391,-1.459 -2.292,-2.125 -0.906,-0.657 -1.958,-1.204 -3.166,-1.646 -1.198,-0.459 -2.558,-0.688 -4.084,-0.688 -1.89,0 -3.573,0.563 -5.041,1.688 -1.474,1.135 -2.438,2.875 -2.896,5.208 -0.959,-1.292 -1.959,-2.375 -3,-3.25 -1.031,-0.865 -2.083,-1.562 -3.167,-2.104 -1.073,-0.542 -2.156,-0.927 -3.25,-1.167 -1.099,-0.25 -2.203,-0.375 -3.312,-0.375 -1.448,0 -2.844,0.229 -4.188,0.688 -1.349,0.442 -2.557,1.151 -3.625,2.125 -1.073,0.984 -1.932,2.255 -2.583,3.812 -0.641,1.552 -0.958,3.464 -0.958,5.729 0,2.719 0.541,4.948 1.624,6.688 1.084,1.75 2.5,3.213 4.25,4.396 1.761,1.192 3.761,2.208 6.001,3.041 2.234,0.844 4.52,1.735 6.854,2.667 1.75,0.677 3.02,1.698 3.812,3.063 0.792,1.375 1.188,2.781 1.188,4.229 0,2.218 -0.657,4 -1.959,5.333 C 4.026,-0.667 2.25,0 0,0 m 7.167,-19.729 c 0,0.75 -0.245,1.318 -0.73,1.708 -0.489,0.401 -1.104,0.604 -1.854,0.604 -1.041,0 -2.036,-0.244 -2.979,-0.729 -0.948,-0.474 -1.781,-1.177 -2.5,-2.104 -0.724,-0.932 -1.302,-2.083 -1.729,-3.458 -0.417,-1.365 -0.625,-2.948 -0.625,-4.75 0,-1.74 0.125,-3.177 0.375,-4.313 0.26,-1.14 0.609,-2.052 1.042,-2.729 0.442,-0.682 0.948,-1.161 1.521,-1.437 0.567,-0.266 1.166,-0.396 1.791,-0.396 0.792,0 1.526,0.198 2.209,0.604 0.692,0.417 1.291,0.937 1.791,1.562 0.511,0.636 0.922,1.344 1.229,2.125 0.302,0.776 0.459,1.552 0.459,2.334 z" /></g><g
           transform="translate(251.2786,255.9755)"
           id="g32"><path
             id="path34"
             style="fill:#efeee9;fill-opacity:1;fill-rule:nonzero;stroke:none"
             d="M 0,0 C 1.135,1.75 2.354,3.323 3.646,4.729 4.172,5.323 4.75,5.906 5.375,6.479 6.01,7.062 6.672,7.573 7.354,8.021 8.031,8.464 8.729,8.818 9.438,9.083 10.156,9.359 10.88,9.5 11.604,9.5 c 1.526,0 2.729,-0.458 3.604,-1.375 0.875,-0.917 1.313,-2.198 1.313,-3.833 0,-1.032 -0.084,-2.016 -0.25,-2.959 -0.167,-0.948 -0.495,-2.093 -0.979,-3.437 h -1.25 C 13.859,-1.177 13.438,-0.406 12.771,0.208 12.115,0.818 11.156,1.125 9.896,1.125 8.964,1.125 8.047,0.948 7.146,0.604 6.24,0.271 5.359,-0.156 4.5,-0.667 3.651,-1.182 2.844,-1.74 2.083,-2.333 1.318,-2.932 0.625,-3.5 0,-4.042 v -29.229 c 0,-0.39 -0.062,-0.854 -0.187,-1.396 -0.125,-0.541 -0.428,-1.057 -0.896,-1.541 -0.459,-0.474 -1.146,-0.886 -2.063,-1.23 -0.916,-0.343 -2.166,-0.52 -3.75,-0.52 -1.599,0 -2.854,0.187 -3.771,0.562 -0.906,0.375 -1.599,0.818 -2.083,1.333 -0.49,0.511 -0.792,1.042 -0.917,1.584 -0.114,0.541 -0.166,0.979 -0.166,1.312 v 34.75 c 0,0.875 -0.203,1.631 -0.605,2.271 -0.406,0.636 -1.083,0.958 -2.041,0.958 -0.516,0 -0.953,-0.093 -1.313,-0.27 -0.364,-0.167 -0.75,-0.417 -1.166,-0.75 l -0.959,1.125 c 0.693,0.567 1.464,1.13 2.313,1.687 0.859,0.552 1.781,1.042 2.771,1.458 1,0.417 2.067,0.756 3.208,1.021 1.135,0.276 2.339,0.417 3.604,0.417 1.292,0 2.396,-0.177 3.313,-0.521 0.916,-0.333 1.666,-0.781 2.25,-1.333 0.583,-0.557 1.031,-1.182 1.354,-1.875 0.333,-0.698 0.583,-1.396 0.75,-2.104 0.167,-0.698 0.26,-1.37 0.292,-2.021 C -0.021,1.005 0,0.458 0,0" /></g><g
           transform="translate(311.9638,222.7047)"
           id="g36"><path
             id="path38"
             style="fill:#efeee9;fill-opacity:1;fill-rule:nonzero;stroke:none"
             d="m 0,0 c 0,-0.391 -0.062,-0.854 -0.187,-1.396 -0.125,-0.541 -0.428,-1.057 -0.896,-1.542 -0.459,-0.473 -1.157,-0.885 -2.084,-1.229 -0.932,-0.343 -2.187,-0.52 -3.77,-0.52 -1.599,0 -2.855,0.187 -3.771,0.562 -0.907,0.375 -1.594,0.818 -2.063,1.333 -0.458,0.511 -0.75,1.042 -0.875,1.584 -0.125,0.541 -0.187,0.979 -0.187,1.312 v 31.813 c 0,0.427 -0.063,0.859 -0.188,1.291 -0.114,0.427 -0.292,0.823 -0.542,1.188 -0.239,0.359 -0.536,0.651 -0.895,0.875 -0.349,0.234 -0.766,0.354 -1.25,0.354 -0.808,0 -1.604,-0.24 -2.396,-0.708 -0.781,-0.459 -1.511,-0.995 -2.188,-1.604 -0.666,-0.599 -1.25,-1.198 -1.75,-1.792 -0.489,-0.599 -0.833,-1.052 -1.041,-1.354 V 0 c 0,-0.391 -0.063,-0.854 -0.188,-1.396 -0.125,-0.541 -0.427,-1.057 -0.896,-1.542 -0.458,-0.473 -1.145,-0.885 -2.062,-1.229 -0.917,-0.343 -2.167,-0.52 -3.75,-0.52 -1.599,0 -2.854,0.187 -3.771,0.562 -0.906,0.375 -1.599,0.818 -2.083,1.333 -0.49,0.511 -0.792,1.042 -0.917,1.584 -0.115,0.541 -0.167,0.979 -0.167,1.312 v 34.75 c 0,0.875 -0.203,1.63 -0.604,2.271 -0.406,0.635 -1.083,0.958 -2.042,0.958 -0.515,0 -0.953,-0.093 -1.312,-0.27 -0.365,-0.167 -0.75,-0.417 -1.167,-0.75 L -44,38.188 c 0.693,0.567 1.464,1.13 2.312,1.687 0.86,0.552 1.782,1.042 2.771,1.458 1,0.417 2.068,0.756 3.209,1.021 1.135,0.276 2.338,0.417 3.604,0.417 1.943,0 3.458,-0.328 4.542,-0.979 1.083,-0.641 1.875,-1.412 2.375,-2.313 0.51,-0.89 0.822,-1.828 0.937,-2.812 0.109,-0.974 0.167,-1.787 0.167,-2.438 1.401,1.584 2.916,3.005 4.541,4.271 0.651,0.542 1.375,1.063 2.167,1.563 0.802,0.51 1.625,0.968 2.458,1.375 0.844,0.416 1.719,0.739 2.625,0.979 0.901,0.234 1.797,0.354 2.688,0.354 1.75,0 3.234,-0.323 4.458,-0.958 1.235,-0.625 2.229,-1.386 2.979,-2.271 0.75,-0.875 1.297,-1.802 1.646,-2.771 C -0.177,35.797 0,34.948 0,34.229 c 1.427,1.584 2.943,3.005 4.542,4.271 0.666,0.542 1.385,1.063 2.166,1.563 0.776,0.51 1.589,0.968 2.438,1.375 0.859,0.416 1.734,0.739 2.625,0.979 0.885,0.234 1.776,0.354 2.667,0.354 1.749,0 3.234,-0.328 4.458,-0.979 1.234,-0.641 2.229,-1.49 2.979,-2.542 0.75,-1.042 1.297,-2.224 1.646,-3.542 0.344,-1.323 0.521,-2.64 0.521,-3.958 V 3.875 c 0,-0.266 0.01,-0.557 0.041,-0.875 0.026,-0.323 0.094,-0.625 0.209,-0.917 0.125,-0.281 0.312,-0.51 0.562,-0.687 0.261,-0.182 0.604,-0.271 1.021,-0.271 0.568,0 1.073,0.198 1.521,0.604 0.458,0.417 0.88,0.834 1.271,1.25 L 29.75,2.021 c -0.417,-0.625 -0.974,-1.323 -1.667,-2.083 -0.682,-0.766 -1.5,-1.495 -2.458,-2.188 -0.948,-0.698 -2.042,-1.271 -3.292,-1.729 -1.239,-0.469 -2.635,-0.708 -4.187,-0.708 -1.323,0 -2.474,0.177 -3.458,0.52 -0.974,0.344 -1.803,0.813 -2.48,1.396 -0.666,0.583 -1.166,1.271 -1.5,2.063 -0.333,0.802 -0.5,1.656 -0.5,2.562 v 30.063 c 0,0.427 -0.062,0.859 -0.187,1.291 -0.115,0.427 -0.281,0.823 -0.5,1.188 -0.224,0.359 -0.516,0.651 -0.875,0.875 -0.365,0.234 -0.787,0.354 -1.271,0.354 -0.807,0 -1.615,-0.24 -2.417,-0.708 C 4.167,34.458 3.427,33.922 2.75,33.313 2.083,32.714 1.505,32.115 1.021,31.521 0.547,30.922 0.208,30.469 0,30.167 Z" /></g><g
           transform="translate(361.7513,222.7047)"
           id="g40"><path
             id="path42"
             style="fill:#efeee9;fill-opacity:1;fill-rule:nonzero;stroke:none"
             d="m 0,0 c 0,-0.391 -0.073,-0.854 -0.208,-1.396 -0.141,-0.541 -0.459,-1.057 -0.959,-1.542 -0.489,-0.473 -1.203,-0.885 -2.146,-1.229 -0.947,-0.343 -2.218,-0.52 -3.812,-0.52 -1.583,0 -2.828,0.187 -3.729,0.562 -0.906,0.375 -1.573,0.818 -2,1.333 -0.432,0.511 -0.703,1.042 -0.813,1.584 -0.114,0.541 -0.166,0.979 -0.166,1.312 v 58.063 c 0,0.875 -0.203,1.63 -0.605,2.271 -0.406,0.651 -1.083,0.979 -2.041,0.979 -0.516,0 -0.958,-0.084 -1.333,-0.25 C -18.187,61 -18.583,60.75 -19,60.417 l -0.896,1.083 c 0.677,0.568 1.438,1.13 2.271,1.688 0.844,0.552 1.771,1.041 2.771,1.458 1.01,0.427 2.088,0.776 3.229,1.042 1.135,0.276 2.339,0.416 3.604,0.416 1.959,0 3.469,-0.265 4.542,-0.791 1.083,-0.532 1.88,-1.178 2.396,-1.938 0.51,-0.766 0.817,-1.578 0.916,-2.437 C -0.057,60.089 0,59.333 0,58.667 Z" /></g><g
           transform="translate(408.9871,258.413)"
           id="g44"><path
             id="path46"
             style="fill:#efeee9;fill-opacity:1;fill-rule:nonzero;stroke:none"
             d="m 0,0 c 0,-5.5 -0.536,-10.807 -1.604,-15.917 -1.073,-5.114 -2.542,-9.916 -4.417,-14.416 -1.875,-4.49 -4.104,-8.578 -6.687,-12.271 -2.584,-3.708 -5.391,-6.88 -8.417,-9.521 -3.031,-2.651 -6.24,-4.714 -9.625,-6.187 -3.375,-1.469 -6.786,-2.209 -10.229,-2.209 -2.636,0 -4.677,0.448 -6.125,1.334 -1.443,0.89 -2.167,2.083 -2.167,3.583 0,0.573 0.094,1.125 0.271,1.667 0.182,0.541 0.427,1.02 0.729,1.437 0.292,0.417 0.656,0.76 1.083,1.021 0.417,0.25 0.87,0.375 1.355,0.375 0.573,0 1.041,-0.281 1.416,-0.854 0.375,-0.568 0.771,-1.188 1.188,-1.854 0.416,-0.678 0.932,-1.303 1.541,-1.875 0.594,-0.568 1.417,-0.855 2.459,-0.855 1.344,0 2.755,0.24 4.229,0.709 1.469,0.458 2.948,1.125 4.438,2 1.484,0.864 2.968,1.916 4.458,3.166 1.484,1.24 2.948,2.625 4.396,4.167 -0.849,3.031 -1.823,6.333 -2.917,9.917 -1.083,3.583 -2.24,7.187 -3.458,10.812 -1.209,3.636 -2.453,7.146 -3.729,10.521 -1.282,3.385 -2.532,6.385 -3.751,9 -1.208,2.609 -2.375,4.698 -3.5,6.271 -1.125,1.568 -2.125,2.354 -3,2.354 -0.567,0 -1.005,-0.094 -1.312,-0.271 -0.318,-0.167 -0.693,-0.417 -1.125,-0.75 l -0.896,1.125 c 0.599,0.511 1.229,1.031 1.896,1.563 0.656,0.541 1.432,1.031 2.333,1.479 0.901,0.458 1.948,0.823 3.146,1.104 1.208,0.292 2.651,0.437 4.333,0.437 1.834,0 3.532,-0.416 5.105,-1.25 1.583,-0.822 3.021,-2.343 4.312,-4.562 0.927,-1.641 1.896,-3.62 2.896,-5.937 1.01,-2.308 2.026,-4.891 3.042,-7.75 1.01,-2.849 2.041,-5.933 3.083,-9.25 1.042,-3.308 2.083,-6.782 3.125,-10.417 1.859,3.901 3.359,8.031 4.5,12.396 1.135,4.375 1.708,8.875 1.708,13.5 0,1.651 -0.104,3.062 -0.312,4.229 -0.208,1.167 -0.453,2.156 -0.729,2.979 -0.266,0.833 -0.5,1.542 -0.709,2.125 -0.208,0.583 -0.312,1.104 -0.312,1.562 0,0.443 0.177,0.823 0.542,1.146 0.359,0.318 0.791,0.563 1.291,0.729 0.511,0.178 1.031,0.303 1.563,0.375 0.526,0.084 0.968,0.125 1.333,0.125 0.802,0 1.422,-0.166 1.854,-0.5 C -0.953,6.24 -0.625,5.771 -0.417,5.146 -0.208,4.531 -0.094,3.792 -0.062,2.917 -0.021,2.052 0,1.083 0,0" /></g></g></g></g></svg>